<svg width="32" height="32" viewBox="0 0 32 32" fill="none" xmlns="http://www.w3.org/2000/svg">
  <!-- Cup -->
  <path d="M6 10C6 9.44772 6.44772 9 7 9H25C25.5523 9 26 9.44772 26 10V11C26 11.5523 25.5523 12 25 12H24V20C24 22.2091 22.2091 24 20 24H12C9.79086 24 8 22.2091 8 20V12H7C6.44772 12 6 11.5523 6 11V10Z" fill="#C69C6D"/>
  
  <!-- Handle -->
  <path d="M24 14C25.1046 14 26 14.8954 26 16V18C26 19.1046 25.1046 20 24 20V14Z" fill="#C69C6D"/>
  
  <!-- Steam -->
  <path d="M12 4C12 4 12 6 13 7C14 8 14 8 14 8" stroke="#C69C6D" stroke-width="1.5" stroke-linecap="round"/>
  <path d="M16 3C16 3 16 5.5 17 6.5C18 7.5 18 7.5 18 7.5" stroke="#C69C6D" stroke-width="1.5" stroke-linecap="round"/>
  <path d="M20 4C20 4 20 6 21 7C22 8 22 8 22 8" stroke="#C69C6D" stroke-width="1.5" stroke-linecap="round"/>
  
  <!-- Letter N -->
  <text x="16" y="20" font-family="Arial, sans-serif" font-size="10" font-weight="bold" fill="#FFFFFF" text-anchor="middle">N</text>
</svg>
